General
Complete name                    : People Like Us[2012]BRrip[Ac3-5.1]-=[CaLvIn]=-
Imdb Link                        : http://www.imdb.com/title/tt1716777/
Format                           : AVI
Format/Info                      : Audio Video Interleave
File size                        : 796 MiB
Duration                         : 1h 54mn
Overall bit rate                 : 971 Kbps
Writing application              : VirtualDubMod 1.5.10.3 | www.virtualdub-fr.org || (build 2550/release)
Writing library                  : VirtualDubMod build 2550/release

Video
ID                               : 0
Format                           : MPEG-4 Visual
Format profile                   : Advanced Simple@L5
Format settings, BVOP            : 2
Format settings, QPel            : No
Format settings, GMC             : No warppoints
Format settings, Matrix          : Default (H.263)
Codec ID                         : XVID
Codec ID/Hint                    : XviD
Duration                         : 1h 54mn
Bit rate                         : 706 Kbps
Width                            : 720 pixels
Height                           : 304 pixels
Display aspect ratio             : 16:9
Frame rate                       : 23.976 fps
Color space                      : YUV
Chroma subsampling               : 4:2:0
Bit depth                        : 8 bits
Scan type                        : Progressive
Compression mode                 : Lossy
Bits/(Pixel*Frame)               : 0.134
Stream size                      : 578 MiB (73%)
Writing library                  : XviD 1.2.1 (UTC 2008-12-04)

Audio
ID                               : 1
Format                           : AC-3
Format/Info                      : Audio Coding 3
Mode extension                   : CM (complete main)
Codec ID                         : 2000
Duration                         : 1h 54mn
Bit rate mode                    : Constant
Bit rate                         : 256 Kbps
Channel(s)                       : 6 channels
Channel positions                : Front: L C R, Side: L R, LFE
Sampling rate                    : 48.0 KHz
Bit depth                        : 16 bits
Compression mode                 : Lossy
Stream size                      : 210 MiB (26%)
Alignment                        : Split accross interleaves
Interleave, duration             : 42 ms (1.00 video frame)
Interleave, preload duration     : 500 ms

Screens
 
http://img401.imageshack.us/img401/4568/25486442.png 
http://img252.imageshack.us/img252/703/29805243.png 
http://img687.imageshack.us/img687/9164/59345324.png 
http://img832.imageshack.us/img832/3299/16694786.png 
http://img833.imageshack.us/img833/4954/36559561.png 
http://img17.imageshack.us/img17/8776/91929749.png 
http://img820.imageshack.us/img820/7597/45082745.png 
http://img138.imageshack.us/img138/479/40293480.png 
http://img526.imageshack.us/img526/9233/26463961.png 
http://img708.imageshack.us/img708/8744/13980569.png